<?xml version="1.0" encoding="UTF-8"?>
<svg version="1.1" viewBox="0 0 1600 764" width="1472" height="704" xmlns="http://www.w3.org/2000/svg">
<path transform="translate(0)" d="m0 0h1600v764h-1600z" fill="#FCFDFC"/>
<path transform="translate(779,76)" d="m0 0h44l36 3 28 4 34 7 25 7 6 2h5l21-12 5 1 21 11v24l-15 9-8 5-5-1-15-8-7 1-23 13-29 16-19 11h-2v2l6 2 28 15 18 10 28 15 13 8 6 5 5 8 2 6v52l11-6 30-16 23-13 27-15 8-5h2v-24l24-14 6 2 20 11v24l-15 9-10 5-20-10-4 1-24 13-23 13-43 24-13 7-6 11-5 6-14 9-7 4 16 8 25 13 23 14 14 10 9 7 5-1 16-11 14-11 12-11 10-10 11-15 8-14 1-4h-2l-2-4 1-7 5-5h6l5 4 2 7-3 5-4 3h-4l-2 6-10 16-12 14-17 17-17 13-17 12 4 5 8 7 11 12 6 8v2l-4-1-10-11-7-8-11-10-6 1-22 13-27 14-4 4-6 10-8 7-17 10 19 10 8 8 5 9 3 16 50 28 20 11 5-1 19-10 7 1 5-23v-26l-4-18-7-17-1-5 4 1 8 18 4 15 1 7v24l-4 20-2 8 6 2 9 5v23l-22 12-3 1-12-6-4 1-12 14-11 11-11 9-15 11-15 10-21 12-11 6-3-1 8-5 22-13 15-10 17-13 10-9 8-7 11-12 5-7-5-4-1-19-28-15-23-13-20-11v35l-3 10-7 9-8 7-18 10-24 13-23 13-29 16-25 14-47 26-12 5-14 3h-18l-14-3-12-5-21-11-24-14-24-13-9-5-6 2-27 15-28 15-23 13-6 3v17l12 3 23 7 26 6 29 5 28 3 14 1h57l36-3 36-6 40-10 4 1-7 3-26 7-36 7-30 4-40 2h-19l-34-2-32-4-28-5-28-7-25-8-5 2-18 10-6-2-20-11v-23l22-12 7 1 17 9 6-2 48-26 18-10 14-8-4-3-54-30-25-14-3-2v-2l-4-2-7-10-3-8v-27l-32 17-29 16-24 13-24 14-1 1-1 18-23 13-5-1-22-12v-23l16-9 7-4 5 1 17 9 4 2 4-1 22-12 18-10 67-37 1-18 4-13 9-10 1-2-20-10-20-12-16-11-11-9-10-8-5 2-13 9-10 8-13 11-10 10-9 11-7 10-9 16-3 7 1 5 2 3v6l-4 5-7 1-5-3-2-3v-6l3-5 7-1 2-6 8-16 8-12 9-11 12-13 12-11 17-13 10-7h2l-7-8-7-7-10-14 1-3 5 4 8 10 9 10 5 4 25-15 22-12 15-8h2l1-10 7-11 10-8 10-5-4-3-25-14-22-12-23-13-25-14-3-2-5 1-17 9-6-2-2-1-2 11-2 16v13l3 18 7 21h-4l-6-15-4-16-1-8v-14l3-20 2-9-6-2-9-6 1-22 16-9 8-4 6 2 6 3 2-5 11-14 11-12 19-19 11-9 17-13 19-12h2l-1 3-13 9-13 10-11 9-14 12-17 17-9 11-10 14-1 2 5 2 5 3 1 22 50 28 29 16 6 3-7-7-5-9-1-4v-52l2-9 5-8 7-7 24-13 26-14 22-12 30-16 23-13 28-15 20-11 13-4 13-2h10l17 3 12 5 52 28 22 12 14-7 17-10 26-14 19-11h2l-1-21-35-10-33-7-29-4-23-2-24-1h-20l-35 2-30 4-26 5-26 7-20 6-2-1 9-4 22-7 24-6 35-6 25-3z" fill="#2CDEC0"/>
<path transform="translate(550,370)" d="m0 0 8 12 8 7 23 12 23 10 25 12 25 14 45 27 23 12 18 6 11 2h18l20-4 16-6 6-2v-2l9-3v-2l7-2v-2l10-5h2v-2l8-4h2v-2l21-12 16-8 31-16 32-14 11-6 9-7 6-8 3-6h1l1 6v32l-2 9-5 9-7 8-17 10-3 2 19 10 8 8 5 9 3 16 50 28 20 11 5-1 19-10 7 1 5-23v-26l-4-18-7-17-1-5 4 1 8 18 4 15 1 7v24l-4 20-2 8 6 2 9 5v23l-22 12-3 1-12-6-4 1-12 14-11 11-11 9-15 11-15 10-21 12-11 6-3-1 8-5 22-13 15-10 17-13 10-9 8-7 11-12 5-7-5-4-1-19-28-15-23-13-20-11v35l-3 10-7 9-8 7-18 10-24 13-23 13-29 16-25 14-47 26-12 5-14 3h-18l-14-3-12-5-21-11-24-14-24-13-9-5-6 2-27 15-28 15-23 13-6 3v17l12 3 23 7 26 6 29 5 28 3 14 1h57l36-3 36-6 40-10 4 1-7 3-26 7-36 7-30 4-40 2h-19l-34-2-32-4-28-5-28-7-25-8-5 2-18 10-6-2-20-11v-23l22-12 7 1 17 9 6-2 48-26 18-10 14-8-4-3-54-30-25-14-3-2v-2l-4-2-7-10-3-8v-27l-32 17-29 16-24 13-24 14-1 1-1 18-23 13-5-1-22-12v-23l16-9 7-4 5 1 17 9 4 2 4-1 22-12 18-10 67-37 1-18 4-13 9-10 5-3h2v-2l12-6h3v-2l-6-2-14-8-8-8-5-10-1-3z" fill="#248992"/>
<path transform="translate(554,154)" d="m0 0h2l-1 3-13 9-13 10-11 9-14 12-17 17-9 11-10 14-1 2 5 2 5 3 1 22 50 28 29 16 6 3-7-7-5-9-1-4v-47l2 2 2 5 4 6 5 4 9 5 13 8 22 12 3 1v2l6 2 20 11 12 6 14 8 16 8 6 4 26 13 18 8 7 3 25 4h19l20-3 15-5 15-7 6-2v-2l6-1 2 4v3h2v2l-4 2 3 6-3 5 3 8 3 1v2l3-1h7l2 3-1 4 6-2 15-9 12-6 9-6 7-3 16-9 8-5 5 1 16 9 4 2v2l-10 6-5 1v6l-2 4-2 1-2 6-4 8 2 5 1 3 7 1v6l2 1-7 3-4-1v-2h-5l1 6-19 10-24 13-16 10-26 14-23 13-18 8-14 4-13 2h-14l-16-3-17-6-19-10-28-17-28-16-22-12-21-10-28-12-11-6-10-8-7-8-2-5-1-6v-8l7-11 10-8 10-5-4-3-25-14-22-12-23-13-25-14-3-2-5 1-17 9-6-2-2-1-2 11-2 16v13l3 18 7 21h-4l-6-15-4-16-1-8v-14l3-20 2-9-6-2-9-6 1-22 16-9 8-4 6 2 6 3 2-5 11-14 11-12 19-19 11-9 17-13z" fill="#20A0DB"/>
<path transform="translate(779,76)" d="m0 0h44l36 3 28 4 34 7 25 7 6 2h5l21-12 5 1 21 11v24l-15 9-8 5-5-1-15-8-7 1-23 13-29 16-19 11h-2v2l6 2 28 15 18 10 28 15 13 8 6 5 5 8 2 6v52l11-6 30-16 23-13 27-15 8-5h2v-24l24-14 6 2 20 11v24l-15 9-10 5-20-10-4 1-24 13-23 13-43 24-13 7-6 11-5 6-14 9-7 4 16 8 25 13 23 14 14 10 9 7 5-1 16-11 14-11 12-11 10-10 11-15 8-14 1-4h-2l-2-4 1-7 5-5h6l5 4 2 7-3 5-4 3h-4l-2 6-10 16-12 14-17 17-17 13-17 12 4 5 8 7 11 12 6 8v2l-4-1-10-11-7-8-11-10-6 1-22 13-27 14-3 1v-6l1-2v-32l-1-4-6 10-9 8-14 8-38 17-31 16-19 10-9 6h-3v2l-7 4h-3v2l-9 5h-3v2l-4 2h-3v2l-9 3v2l-16 7-19 5-7 1h-18l-15-3-16-6-25-13-16-10-29-17-25-14-27-13-23-10-17-9-10-9-5-8v41l4 9 4 6 8 7 17 9v2l-15 6v2l-4 2-22-11-20-12-16-11-11-9-10-8-5 2-13 9-10 8-13 11-10 10-9 11-7 10-9 16-3 7 1 5 2 3v6l-4 5-7 1-5-3-2-3v-6l3-5 7-1 2-6 8-16 8-12 9-11 12-13 12-11 17-13 10-7h2l-7-8-7-7-10-14 1-3 5 4 8 10 9 10 5 4 25-15 22-12 15-8h2v-6l2 4 2 9 6 8 8 7 14 8 32 14 23 11 20 11 49 29 22 12 17 6 16 3h14l18-3 19-7 21-11 23-13 20-11 18-11 33-17-1-4 3-3 3 1 1 2 5-1 3-2-1-4 1-2-7-1-3-4-1-5 5-8 2-6h2l2-10 10-5 5-2-1-2-16-8-5-3v-2l-2-1 1-2h-9l-2-3 3-5v-16l-3-6v-3l-9-2-4 2h-4l1-3 8-2v-2l20-11 4-3h2l-4-4-7-4-3-7-9-3-4-3-9-3-2-2 1-3-10-2-11-7-9-9v-2l-4-2-6-4-9-9-9-15-6-7-3-7-9-6-8-3-2-4-7-8-2-2-5-1v-3l-4-1-1-2-4-2-4-5-4-3-4-1v-2l-3-1-3-5v-3h-2l1-12 2-2 9-1 12 4 32 17 24 13 22 12 14-7 17-10 26-14 19-11h2l-1-21-35-10-33-7-29-4-23-2-24-1h-20l-35 2-30 4-26 5-26 7-20 6-2-1 9-4 22-7 24-6 35-6 25-3z" fill="#30E7BD"/>
<path transform="translate(986,491)" d="m0 0h2l-1 43-4 9-9 10-11 7-24 13-23 13-24 13-23 13-29 16-23 13-19 10-14 4-6 1h-18l-14-3-12-5-21-11-24-14-24-13-9-5-6 2-27 15-28 15-23 13-6 3v17l12 3 23 7 26 6 29 5 28 3 14 1h57l36-3 36-6 40-10 4 1-7 3-26 7-36 7-30 4-40 2h-19l-34-2-32-4-28-5-28-7-25-8-5 2-18 10-6-2-20-11v-23l22-12 7 1 17 9 6-2 48-26 18-10 14-8-4-3-54-30-25-14-3-2v-2l-4-2-7-10-2-5v-28l1 2 5-1v-2l4-1 4 3v2l5 2 13 7 10 4 16 8 13 6 19 10 12 7 12 6 17 10 13 8 12 6 8 5 15 7 20 6 5 1h28l13-2 13-4 16-8 19-10 24-14 44-24 27-13 23-11 11-7 8-8z" fill="#175B81"/>
<path transform="translate(643,176)" d="m0 0 2 1-6 5v6l4 2 5 4 6 7 17 9 3 2v2l5 2 4 4 10 6 11 6 10 7 13 12 7 8 8 9 6 4 11 14 12 12 8 7 6 5 5 5 7 6 3 10 5 2 7 6 2 2-1 2 5 1v2h-2v2l-13 5-18 4h-32l-22-5-8-4-12-5-16-9-16-8-9-5-12-7-8-4-22-12-16-8-14-8-5-2-23-13-9-7-7-8-3-9 1-9 5-8 7-7 24-13 26-14 22-12z" fill="#25C0CF"/>
<path transform="translate(581,447)" d="m0 0h6l17 9 24 14 17 9 23 13 27 15 23 13 22 12 14 4 7 1h17l16-4 16-8 47-26 25-14 24-13 16-9 9-5 6 1 18 10 1 2-24 13-21 12-28 15-21 12-26 14-18 10-16 9-11 4-10 1v2h-13l1 4h3v2h3l4 4h3l7 8 6 2 5 2 6 7-6 3-18 4h-24l-17-3-7-3-13-5-18-10-19-11-22-12-12-7-11-6-14-7-23-11-7-4-11-4-13-7-5-3v-2l-4-2-6-7-4-7v-18l6-8 5-5 6-2v-2z" fill="#1B5A95"/>
<path transform="translate(711,139)" d="m0 0h2v8l4-1-1 5h-4l6 11 5 4 16 8 8 7v2h2l7 8 9 7 3 2-2-6 8 6 11 9 4 5 6 9 3 4v2h2l5 5 4 3v2l3 1v6l4 2 10 9 6 7 8 5v2l5 2 8 7 6 5 11 7 2 4 7 6 5-1v6l-3 4v3l-34 18-22 12-6 3-3-1h2v-2l-5-1-1-3-7-6-5-3-5-11-10-8v-2l-4-2-8-8-8-7-9-9-8-10v-2l-4-2-8-7-14-16-8-7-10-7-14-8-9-5-5-5-2-1v-2l-5-2-16-9-7-8-7-5-1-6 6-5 3-3 19-10 23-13z" fill="#29D2C5"/>
<path transform="translate(969,270)" d="m0 0 9 3 3 8-1 8-1 2v9l2 2 2-1-1 5-7 9-14 9-7 4 16 8 25 13 23 14 14 10 9 7 5-1 16-11 14-11 12-11 10-10 11-15 8-14 1-4h-2l-2-4 1-7 5-5h6l5 4 2 7-3 5-4 3h-4l-2 6-10 16-12 14-17 17-17 13-17 12 4 5 8 7 11 12 6 8v2l-4-1-10-11-7-8-11-10-6 1-22 13-27 14-3 1v-6l1-2v-32l-1-4-6 10-9 8-14 8-38 17-31 16-19 10-9 6h-3v2l-7 4h-3v2l-9 5h-3v2l-4 2h-3v2l-9 3v2l-16 7-19 5-7 1h-18l-15-3-16-6-25-13-16-10-29-17-25-14-27-13-23-10-17-9-10-9-5-8v41l4 9 4 6 8 7 17 9v2l-15 6v2l-4 2-22-11-20-12-16-11-11-9-10-8-5 2-13 9-10 8-13 11-10 10-9 11-7 10-9 16-3 7 1 5 2 3v6l-4 5-7 1-5-3-2-3v-6l3-5 7-1 2-6 8-16 8-12 9-11 12-13 12-11 17-13 10-7h2l-7-8-7-7-10-14 1-3 5 4 8 10 9 10 5 4 25-15 22-12 15-8h2v-6l2 4 2 9 6 8 8 7 14 8 32 14 23 11 20 11 49 29 22 12 17 6 16 3h14l18-3 19-7 21-11 23-13 20-11 18-11 33-17-1-4 3-3 3 1 1 2 5-1 3-2-1-4 1-2-7-1-3-4-1-5 5-8 2-6h2l2-10 10-5 5-2-1-2-16-8-5-3v-2l-2-1 1-2h-9l-2-3 3-5v-16l-3-6v-3l-8-2 4-4 35-18z" fill="#2BDEC0"/>
<path transform="translate(558,504)" d="m0 0 6 3v2l5 2 13 7 10 4 16 8 13 6 19 10 12 7 12 6 17 10 13 8 12 6 8 5-1 3-3 2 1 1v6l4 5v3l4 4v2l1 5-7 4-2-1-1 4h2v3l5 2 5 5 8 5v2l5 2 1 2-6-1-17-9-24-14-24-13-9-5-6 2-27 15-28 15-23 13-6 3v17l12 3 23 7 26 6 29 5 28 3 14 1h57l36-3 36-6 40-10 4 1-7 3-26 7-36 7-30 4-40 2h-19l-34-2-32-4-28-5-28-7-25-8-5 2-18 10-6-2-20-11v-23l22-12 7 1 17 9 6-2 48-26 18-10 14-8-4-3-54-30-25-14-3-2v-2l-4-2-7-10-2-5v-28l1 2 5-1v-2z" fill="#144088"/>
<path transform="translate(550,370)" d="m0 0 8 12 8 7 23 12 23 10 25 12 25 14 45 27 23 12 18 6 11 2-4 2-2 2-1 5 3 7 1 8v11l-2 10-1 6h-7l-12-5-27-15-25-14-23-13-54-30-10-6-11-5v-2l-6-2-14-8-8-8-5-10-1-3z" fill="#2D61C4"/>
<path transform="translate(586,207)" d="m0 0v3 5l4 5v2l9 1 1 3 10 2 4 2 7 7v2l5 1 15 10-1 4 5 1 19 9 7 3 13 11 5 5 4 5v3l5 2v2l5 2 8 7 7 7 7 8 4 4 2-2 10 10 7 5v8l8 7 5 5h-11l-19-4-8-4-12-5-16-9-16-8-9-5-12-7-8-4-22-12-16-8-14-8-5-2-23-13-9-7-7-8-3-9 1-9 5-8 7-7z" fill="#22B5D4"/>
<path transform="translate(602,338)" d="m0 0 5 2 15 8 12 7 14 7 9 6 8 4 9 5 10 6 6 3 13 7 10 6 8 4 17 9 10 4 10 2h22l12-3 5-3 8-3 21-12 14-7 22-12 17-10 12-6 9-6 7-3 16-9 8-5 5 1 16 9 4 2v2l-10 6-16 8-26 14-14 8-18 10-39 22-24 13-10 5-8 3-12 2h-23l-18-5-24-13-23-13-26-14-19-11-14-7-23-13-22-12-7-4 4-4z" fill="#0A223E"/>
<path transform="translate(601,457)" d="m0 0 6 1 25 14 29 16 18 10 23 13 27 15 14 7 11 3 7 1h17l16-4 16-8 47-26 25-14 24-13 16-9 9-5 6 1 18 10 1 2-24 13-21 12-28 15-21 12-26 14-18 10-16 9-11 4-10 2h-25l-15-4-16-8-24-13-23-13-18-10-21-12-24-13-21-12-13-7v-2z" fill="#09213C"/>
<path transform="translate(1083,430)" d="m0 0 4 1 8 18 4 15 1 7v24l-4 20-2 8 6 2 9 5v23l-22 12-3 1-12-6-4 1-12 14-11 11-11 9-15 11-15 10-21 12-11 6-3-1 8-5 22-13 15-10 17-13 10-9 8-7 11-12 5-7-5-4-1-19-28-15-23-13-20-11v35h-1v-36l1-3-3 3-6 9-8 8-14 8-27 13-23 11-24 13-23 13-21 12-27 14-10 4-11 3-9 1h-28l-19-5-15-6-13-7-10-6-11-6-22-13-8-4-22-12-13-7-15-7-20-10-8-3-11-6-3-2v-2l-6-2h-2v2l-5 1-1 23h-1v-27l-32 17-29 16-24 13-24 14-1 1-1 18-23 13-5-1-22-12v-23l16-9 7-4 5 1 17 9 4 2 4-1 22-12 18-10 67-37 1-18 2-8h1l1 15 7 11 6 5v2l5 2 16 8 10 4 16 8 21 11 5 2 11 6 14 8 10 6 6 3 23 13 18 10 13 5 11 4 13 2h24l11-2 7-2 8-3 25-12 24-14 17-9 21-12 33-17 27-12-3-5 1-2 6 1v4l12-8 8-8 5-10 2-9h1l2 12 50 28 20 11 5-1 19-10 7 1 5-23v-26l-4-18-7-17z" fill="#21A1DC"/>
<path transform="translate(837,340)" d="m0 0 4 1 2 3v3h2v2l-4 2 3 6-3 5 3 8 3 1v2l3-1h7l2 3-1 6-26 14-6 3-18 10-7 4-7 3-5 2-9 2h-22l-16-4 2-8h-2l-5-5-3-2-7-2-1-4-4-10-4-9v-6l-14-13-5-7v-3l-6-2-2-2 5-1 5 2 1-2 16 8 16 6 6 2 20 3h19l20-3 15-5 15-7 6-2v-2z" fill="#1EAED6"/>
<path transform="translate(550,358)" d="m0 0 2 4 2 9 6 8 8 7 14 8 32 14 23 11 20 11 49 29 22 12 17 6 16 3h14l18-3 19-7 21-11 23-13 20-11 18-11 33-17-1-4 3-3 3 1 1 2 5-1 20-9 11-6 10-9 5-5-1 6-9 10-13 8-24 11-20 9-29 15-19 10-9 6h-3v2l-7 4h-3v2l-9 5h-3v2l-4 2h-3v2l-9 3v2l-16 7-19 5-7 1h-18l-15-3-16-6-25-13-16-10-29-17-25-14-27-13-23-10-17-9-10-9-5-8v41l4 9 4 6 8 7 17 9v2l-15 6v2l-4 2-22-11-20-12-16-11-11-9-10-8-5 2-13 9-10 8-13 11-10 10-9 11-7 10-9 16-3 7 1 5 2 3v6l-4 5-7 1-5-3-2-3v-6l3-5 7-1 2-6 8-16 8-12 9-11 12-13 12-11 17-13 10-7h2l-7-8-7-7-10-14 1-3 5 4 8 10 9 10 5 4 25-15 22-12 15-8h2z" fill="#4BB6E4"/>
<path transform="translate(986,491)" d="m0 0h2l-1 43-4 9-9 10-11 7-24 13-23 13-24 13-19 11-1-2-5 1-1-7-13-3-7-4-3 1-5-4-3-2 2-5v-3l4-3 46-26 24-13 27-13 23-11 11-7 8-8z" fill="#228685"/>
<path transform="translate(939,361)" d="m0 0 2 1-1 5-1 3-2 1-2 6-4 8 2 5 1 3 7 1v6l2 1-7 3-4-1v-2h-5l1 6-19 10-24 13-16 10-26 14-23 13-18 8-9 3h-4l-1-7 2-4h-3l-5-6-2-5 1-7 2-4h-5l1-2 12-2 15-6 29-16 14-8 16-9 21-12 11-6 28-15z" fill="#21B4D3"/>
<path transform="translate(850,453)" d="m0 0 2 1-5 6-1 2 3 1v13l-5 11v5l-2 2 2 2-3 6-4 4 3 3-21 12-20 11-15 5-6 1h-17l-11-2 3-1v-10h2l-1-4 1-2v-11l-2-10-2-5 1-6 3-2 22-1 20-4 16-6 6-2v-2l9-3v-2l7-2v-2l10-5h2v-2z" fill="#2480A7"/>
<path transform="translate(651,172)" d="m0 0 4 1-1 2h-2l3 3 9 6 7 3 1 5 9 3 10 5 4 4v2l4 2 8 7v2h5l1 5 5 2 6 5 9 6 10 9 12 11 4 9 12 14 5 4 4 6 12 10 13 6 7 3 10 9 1 2v-5l-4-2-4-4 1-2 10 6 7 6v2l5 2 5 3 7 4-1 3-24 13-6 3-3-1h2v-2l-5-1-1-3-7-6-5-3-5-11-10-8v-2l-4-2-8-8-8-7-9-9-8-10v-2l-4-2-8-7-14-16-8-7-10-7-14-8-9-5-5-5-2-1v-2l-5-2-16-9-7-8-7-5-1-6 6-5 3-3z" fill="#27CBCA"/>
<path transform="translate(558,504)" d="m0 0 6 3v2l5 2 13 7 10 4 16 8 13 6 19 10 7 4-2 4-2 1 1 9 3 6h-2l-1 7-1 2h-8v2h-3l4 5 8 7 5 5v2l-6-2-23-13-22-12-23-13-12-7v-2l-4-2-7-10-2-5v-28l1 2 5-1v-2z" fill="#153593"/>
<path transform="translate(601,457)" d="m0 0 6 1 25 14 29 16 18 10 23 13 27 15 14 7 11 3 23 2-3 2-13 3-4 4-9 2-1 3-5-1 2 5 10 3v1h-7l-13-5-58-32-24-14-28-15-23-13-20-11v-2z" fill="#051835"/>
<path transform="translate(913,299)" d="m0 0 10 2 1 6 2 4v16l-3 5 4 2 6 1 1 4-11 6-19 11-7 3-15 9-12 6-10 6-4-1h2v-5l-1-1h-10l-2-2-2-1-3-9 3-5-3-6 5-1v-2h-2l-4-8 27-14 23-13z" fill="#28D2C4"/>
<path transform="translate(581,447)" d="m0 0h6l17 9-3 2-18 10h-2v2l6 2 23 13 18 10 1 2-1 6h-2l1 7-1 4h-2l6 8 1 7-2 3h-2l-2 3-23-11-7-4-11-4-13-7-5-3v-2l-4-2-6-7-4-7v-18l6-8 5-5 6-2v-2z" fill="#2047B4"/>
<path transform="translate(554,233)" d="m0 0h1v5l10 3 7 2 14 1 5 1 5 6 10 8 4 5 8 4 12 3 8 6 5 4 11 7 7 6 14 5 3 5 3 6 2 3 7 2 4 4v2l-4-1 1 4 7 5 5 3 6 7-4 1-10-6-16-8-9-5-12-7-8-4-22-12-16-8-14-8-5-2-23-13-9-7-7-8-3-9 1-9z" fill="#1EAFD6"/>
<path transform="translate(714,589)" d="m0 0 4 1 14 6 17 5 13 2 16 1v1l-9 3-1 3 2 6 3 7 3 3v2l12 6 10 3 2 2-1 5h7v2l-11 5-11 3-6 1h-18l-14-3-12-5 1-2-5-3v-2l-5-2-8-6-3-3-2-1v-3h-2l-1-4-1-2 4 1 2 1 5-4-2-8-4-4v-3l-3-4 1-5-2-1 3-1 1-2z" fill="#155281"/>
<path transform="translate(913,418)" d="m0 0 7 7 3-1 1 2-1 13-3 7-2-4-5 14-3-1-4 6-8 6-5 5-8 3-12 6-5 5-2 4 7-1v2l-24 13-9 5-4-2 2-4 3-3v-3l2-1-2-2 2-4 1-6 4-9v-10l1-2-4-1 4-6 4-5 4-1v-2l21-12 16-8z" fill="#248D9D"/>
<path transform="translate(779,76)" d="m0 0h44l36 3 28 4 34 7 25 7 6 2h5l21-12 5 1 21 11v24l-15 9-8 5-5-1-15-8-7 1-23 13-29 16-19 11h-5l1-3 23-13 27-15 23-13h2l-1-21-35-10-33-7-29-4-23-2-24-1h-20l-35 2-30 4-26 5-26 7-20 6-2-1 9-4 22-7 24-6 35-6 25-3z" fill="#27CBCB"/>
<path transform="translate(649,602)" d="m0 0 7 1-4 3-29 16-28 15-23 13-6 3v17l12 3 23 7 26 6 29 5 28 3 14 1h57l36-3 36-6 40-10 4 1-7 3-26 7-36 7-30 4-40 2h-19l-34-2-32-4-28-5-28-7-25-8-5 2-18 10-6-2-20-11v-23l22-12 7 1 17 9 6-2 48-26 18-10z" fill="#2F65C6"/>
<path transform="translate(548,368)" d="m0 0h1l1 41 4 13 6 8 7 6 17 9v2l-10 4-5 3-6-2-23-12-18-11-14-10-10-8-9-8 4-4 15-9 25-14z" fill="#FBFDFC"/>
<path transform="translate(554,154)" d="m0 0h2l-1 3-13 9-13 10-11 9-14 12-17 17-9 11-10 14-1 2 5 2 5 3 1 22 50 28 29 16 23 13 4 4h-6l-29-16-22-12-23-13-25-14-3-2-5 1-17 9-6-2-2-1-2 11-2 16v13l3 18 7 21h-4l-6-15-4-16-1-8v-14l3-20 2-9-6-2-9-6 1-22 16-9 8-4 6 2 6 3 2-5 11-14 11-12 19-19 11-9 17-13z" fill="#3385CE"/>
<path transform="translate(837,340)" d="m0 0 4 1 2 3v3h2v2l-4 2 3 6-3 5 3 8 3 1v2l3-1h7l2 3-1 6-26 14-6 3-18 10-3 2h-7l-6 2-5-1v-5l3-3v-7l2-2v-9l-1-7 1-3-8-7-2-4v-3l-3-1 20-3 15-5 15-7 6-2v-2z" fill="#24BFCE"/>
<path transform="translate(629,496)" d="m0 0 14 7 24 14 24 13 7 4-2 2 2 3-3 2 4 3v5l2 4-3 1 2 3-3 1v2h2l4 9 3 3 5 2v3l2 2 1 4-5-2-22-12-10-6-12-6-13-8-12-6-2-2-8-3-4-2 1-5h2l1-4-2-7-4-4 2-7v-6h2v-6z" fill="#1D509D"/>
<path transform="translate(939,361)" d="m0 0 2 1-1 5-1 3-2 1-2 6-4 8 2 5 1 3 7 1v6l2 1-7 3-4-1v-2h-5l1 6-19 10-24 13-11 7h-5l-4-8 1-7 2-8-3-7-3-1 1-3 22-12 21-12 32-17z" fill="#28D0C4"/>
<path transform="translate(838,535)" d="m0 0 7 2 2 4 5 2-1 2 4 3 2 6 7 6-1 3-27 15-23 12-6 3-3-1v-2l-6-5-9-3-7-7v-2l-4 1-3-3v-2h-3v-2h-3l-1-4h13v-2l16-4 16-8z" fill="#2476AD"/>
<path transform="translate(705,468)" d="m0 0h9l21 10 17 5 7 1-4 2-2 2-1 5 3 7 1 8v11l-2 10-1 6h-7l-12-5-21-12-1-2 1-2-4-2-6-7-4-6v-2l4 1 5 3-3-7v-16l-1-8z" fill="#286DB6"/>
<path transform="translate(550,491)" d="m0 0 4 5 4 6v3h-2v2l-5 1-1 23h-1v-27l-32 17-29 16-24 13-24 14-1 1-1 18-23 13-5-1-22-12v-23l16-9 7-4 5 1 17 9 4 2 4-1 22-12 18-10 67-37h2z" fill="#26BFCF"/>
<path transform="translate(551,473)" d="m0 0h1l1 15 7 11 6 5v2l5 2 16 8 10 4 16 8 21 11 5 2 11 6 14 8 10 6 6 3 23 13 18 10 13 5 11 4 13 2h24l11-2 7-2 8-3 25-12 24-14 17-9 21-12 33-17 27-12-3-5 1-2 6 1v4l12-8 8-8 5-10 2-9h1l1 12h-2l-2 6-6 8-7 7-14 8-27 13-23 11-24 13-23 13-21 12-27 14-10 4-11 3-9 1h-28l-19-5-15-6-13-7-10-6-11-6-22-13-8-4-22-12-13-7-15-7-20-10-8-3-11-6-3-2v-2l-4-2-5-5-4-7-1 6h-1v-18z" fill="#45B0E0"/>
<path transform="translate(1112,199)" d="m0 0 6 2 20 11v24l-15 9-10 5-20-10-4 1-24 13-5 2h-5l3-3 25-14 5-2v-24z" fill="#68D9A3"/>
<path transform="translate(789,482)" d="m0 0h5l-6 8-2 2 1 11 1 12 1 4-1 2 2 1-1 1 7 4 1 4 2 1-15 5-6 1h-17l-11-2 3-1v-10h2l-1-4 1-2v-11l-2-10-2-5 1-6 3-2 22-1z" fill="#2476AD"/>
<path transform="translate(874,560)" d="m0 0 4 1-2 3h2l3 6 6 5v2l16 4-1 8 4-2 4 2-16 9-21 12-1-2-5 1-1-7-13-3-7-4-3 1-5-4-3-2 2-5v-3l4-3 23-13z" fill="#2581A8"/>
<path transform="translate(981,347)" d="m0 0 6 2 19 11 24 16 9 7-4 4-25 14-21 11h-2v-35l-1-18-5-10z" fill="#FDFEFD"/>
<path transform="translate(746,359)" d="m0 0 36 2 2 6 9 8-1 6 1 4v9l-2 2-1 7 2 1-4 3v4h6l4-2 5 1-2 2-7 3-5 2-6 1h-10v-1h5v-2l-3-1v-2h-3v-4l-4-4-5-15-2-3h3l-7-8v-2l-4-2-5-1-1-7h-5l2-4z" fill="#21B4D3"/>
<path transform="translate(917,537)" d="m0 0 1 2-2 7 3 13 5 3 9 3-1 2-4 2 11 1 4-2 4 1-28 15-7 4h-7l-3 1 1-8-13-2-10-9-2-3v-3h-2v-4l4-3 18-10z" fill="#248992"/>
<path transform="translate(871,322)" d="m0 0h3l-1 10-1 2 1 4-4 2 3 11 2 3 15 2v4l-3 3-1 3-20 11-5 3-4-1h2v-5l-1-1h-10l-2-2-2-1-3-9 3-5-3-6 5-1v-2h-2l-4-8 27-14z" fill="#27CACA"/>
<path transform="translate(548,364)" d="m0 0h2v4l-23 12-24 14-13 8 5 6 17 13 18 12 25 14 14 7-4 3-22-11-20-12-16-11-11-9-10-8-5 2-13 9-10 8-13 11-10 10-9 11-7 10-9 16-3 7 1 5 2 3v6l-4 5-7 1-5-3-2-3v-6l3-5 7-1 2-6 8-16 8-12 9-11 12-13 12-11 17-13 10-7h2l-7-8-7-7-10-14 1-3 5 4 8 10 9 10 5 4 25-15 22-12z" fill="#2F71C8"/>
<path transform="translate(1120,287)" d="m0 0h6l5 4 2 7-3 5-4 3h-4l-2 6-10 16-12 14-17 17-17 13-17 12 4 5 8 7 11 12 6 8v2l-4-1-10-11-7-8-11-10-6 1-22 13-27 14-3 1v-6l5-1 25-13 22-13-5-5-24-16-15-9-14-8-9-7 3-1 21 11 23 14 14 10 9 7 5-1 16-11 14-11 12-11 10-10 11-15 8-14 1-4h-2l-2-4 1-7z" fill="#298AB7"/>
<path transform="translate(1083,430)" d="m0 0 4 1 8 18 4 15 1 7v24l-4 20-2 8 6 2 9 5v23l-22 12-3 1-6-3 1-4h2v-9l-1-13 2-9 2-3-1-7 7 1 5-23v-26l-4-18-7-17z" fill="#4EB7E4"/>
<path transform="translate(860,405)" d="m0 0 7 1v3l2 7-3 9 1 6 2 5 3 2-16 9-14 8h-3v-2l-6-2-3-3 1-2-1-9 2-4-2-1v-5l-2-3 3-3 18-10z" fill="#24BFCE"/>
<path transform="translate(550,243)" d="m0 0h2l3 9 9 10 15 9 14 8 16 8 7 4 25 13 11 6 6 3 12 7 11 6 21 11 15 8 13 5 4 2 19 4h32l18-4 20-8 23-12 22-12 26-14 5-3h6l-3 3-26 14-18 10-21 11h-2v2l-17 8-11 4-8 3-20 3h-19l-25-4-12-5-18-8-11-6-15-8-14-8-16-8-8-5-16-8-15-8v-2l-5-1-20-11-18-11-9-6-3-3-3-5-2-6z" fill="#2EE3BE"/>
<path transform="translate(838,535)" d="m0 0 7 2 2 4 5 2-1 2 4 3 2 6 7 6-1 3-23 13h-2l-8-8-6-2-9-6-10-5v-2l30-16z" fill="#2882A9"/>
<path transform="translate(978,87)" d="m0 0 5 1 21 11v24l-10 6-6 1-2-2h-3v-2h2l-2-3-4-2v-3l-6-5v-4h-3v-3l-4-1-6-2 2-3-2-3z" fill="#29D3C5"/>
<path transform="translate(757,562)" d="m0 0h24v1h-13l1 4h3v2h3l4 4h3l7 8 6 2 5 2 6 7-6 3-18 4h-13l-10-3 1-4-5-5 1-7 2-1-4-8 1-7z" fill="#175A80"/>
<path transform="translate(890,388)" d="m0 0 2 1v3l-5 25 3 2v2 4l-1 3-15 9h-5l-4-8 1-7 2-8-3-7-3-1 1-3 22-12z" fill="#26C9C9"/>
<path transform="translate(867,676)" d="m0 0 4 1-7 3-26 7-36 7-30 4-40 2h-19l-34-2-32-4-28-5-17-4-4-4 15 2 36 7 35 4 14 1h57l36-3 36-6z" fill="#2762B5"/>
<path transform="translate(566,381)" d="m0 0 9 2v2l4-1 4 3 7 3v2l9 2 7 2h3l5 5 15 8 11 6 5 5 9 5v2h6l7 6 4 5-6-2-19-11-27-14-30-13-16-8-8-6z" fill="#3185CE"/>
<path transform="translate(779,76)" d="m0 0h44l36 3-4 3-46-2h-20l-35 2-30 4-26 5-26 7-20 6-2-1 9-4 22-7 24-6 35-6 25-3z" fill="#3896D5"/>
<path transform="translate(448,428)" d="m0 0 1 4-14 14-9 11-7 10-9 16-3 7 1 5 2 3v6l-4 5-7 1-5-3-2-3v-6l3-5 7-1 2-6 8-16 8-12 9-11 12-13z" fill="#29BFD1"/>
<path transform="translate(983,373)" d="m0 0 1 4-6 8-7 6-14 8-38 17-31 16-19 10-5 3-2-1 5-4 17-10 14-8 29-15-1-4 3-3 3 1 1 2 5-1 20-9 11-6 10-9z" fill="#49B5E3"/>
<path transform="translate(969,475)" d="m0 0 6 1 7 4h3v7l-1 3-14 5-3 1-9-5-2-2v-7l3-3z" fill="#228684"/>
<path transform="translate(1120,287)" d="m0 0h6l5 4 2 7-3 5-4 3h-4l-2 6-10 16-5 5h-2l-4 3 2-4 10-14 6-11 1-4h-2l-2-4 1-7z" fill="#68D9A3"/>
<path transform="translate(649,602)" d="m0 0 7 1-4 3-29 16-28 15-23 13-6 2-2-3 23-13 30-16 18-10z" fill="#3279CD"/>
<path transform="translate(550,491)" d="m0 0 4 5 4 6v3h-2v2l-5 1-1 23h-1v-27l-32 17-29 16-5 1v-3l18-10 47-26h2z" fill="#3275CB"/>
<path transform="translate(1066,556)" d="m0 0 3 1-1 4-12 14-11 11-11 9-15 11-15 10-21 12-11 6-3-1 8-5 22-13 15-10 17-13 10-9 8-7 11-12z" fill="#3691D3"/>
<path transform="translate(938,499)" d="m0 0 10 4 5 4v6l3 1-3 3-11 5h-5l-5-7-2-7v-5z" fill="#228684"/>
<path transform="translate(849,80)" d="m0 0h19l35 6 26 6 23 7 2 4-8-1-28-8-33-7-29-4-7-2z" fill="#277BB3"/>
<path transform="translate(1083,430)" d="m0 0 4 1 8 18 4 15 1 7v24l-4 20-3 7-2-1 1-10 3-15v-26l-4-18-7-17z" fill="#2C8EBC"/>
<path transform="translate(867,676)" d="m0 0 4 1-7 3-26 7-36 7-30 4-14 1h-11v-2h-29v-1l37-1 36-3 36-6z" fill="#4DB7E4"/>
<path transform="translate(986,490)" d="m0 0 5 1 21 12 27 15 21 12v3l-5-1-24-13-23-13-20-11v35h-1v-36l1-3z" fill="#3490D2"/>
<path transform="translate(487,404)" d="m0 0 7 5 5 2 17 13 19 12 24 13 10 5-4 3-22-11-20-12-16-11-11-9-9-8z" fill="#3070C6"/>
<path transform="translate(443,276)" d="m0 0 3 2-1 8-2 10-1 10v13l3 18 7 21h-4l-6-15-4-16-1-8v-14l3-20z" fill="#3270C7"/>
<path transform="translate(1057,255)" d="m0 0h3v2l-27 15-23 13-22 12h-2v-4l18-10 24-13 23-13z" fill="#2F9EB3"/>
<path transform="translate(620,290)" d="m0 0 10 2 15 8 6 4 15 7 13 5v3l-9-3h-9l-4-3-7-3-22-12-5-2-4-5z" fill="#20A3DB"/>
<path transform="translate(1104,331)" d="m0 0 1 3-11 12-13 13-17 13-17 12-2 1-3-4 16-10 13-10 13-11 14-14z" fill="#33A0AE"/>
<path transform="translate(756,78)" d="m0 0h8l2 3-36 4-27 5-28 7-23 7-2-1 9-4 22-7 24-6 35-6z" fill="#4CB7E4"/>
<path transform="translate(448,428)" d="m0 0 1 4-14 14-9 11-7 10-9 16-2 5h-3l-1-2 8-16 8-12 9-11 12-13z" fill="#35B7DA"/>
<path transform="translate(548,364)" d="m0 0h2v4l-23 12-24 14-5 3h-2l1-5 25-14 22-12z" fill="#3278CD"/>
<path transform="translate(927,139)" d="m0 0h5l-1 3-29 16-19 11h-5l1-3 23-13z" fill="#30A1BE"/>
<path transform="translate(1036,385)" d="m0 0 3 1-2 4-23 13-25 13-3 1v-6l5-1 25-13z" fill="#2A98B5"/>
<path transform="translate(554,154)" d="m0 0h2l-1 3-13 9-13 10-11 9-8 7h-2l2-6 9-8 16-12z" fill="#3593D4"/>
<path transform="translate(687,695)" d="m0 0 31 1 29 1v2l-15 1h-19l-34-2v-1l8-1z" fill="#3475CB"/>
<path transform="translate(782,693)" d="m0 0h15l-1 2-24 3-14 1h-11v-2h-29v-1l37-1z" fill="#359CD9"/>
<path transform="translate(481,536)" d="m0 0 3 3-27 15-12 7-4-3 22-12z" fill="#2DA8DE"/>
<path transform="translate(986,490)" d="m0 0 5 1 21 12 5 3v3l-5-1-24-13v35h-1v-36l1-3z" fill="#3998B9"/>
<path transform="translate(1019,601)" d="m0 0 2 1-2 4-15 10-21 12-11 6-3-1 8-5 22-13 15-10z" fill="#49B5E3"/>
<path transform="translate(477,405)" d="m0 0h2v2l2 1-13 9-10 8-7 6h-2l1-5 13-11z" fill="#3591D3"/>
<path transform="translate(971,338)" d="m0 0 5 1 19 10 9 6 1 4-6-2-19-11-9-7z" fill="#2882B6"/>
<path transform="translate(986,371)" d="m0 0h1l1 6v32h-1l-1-21-4 2-6-3 6-8z" fill="#2F98AF"/>
<path transform="translate(550,491)" d="m0 0 4 5 4 6v3h-2v2l-5 1-1 23h-1v-27h-3l2-5h2z" fill="#2558B9"/>
<path transform="translate(1066,556)" d="m0 0 3 1-1 4-12 14-5 5-4 1-3 2 2-4 8-8 11-14z" fill="#327FCE"/>
<path transform="translate(906,530)" d="m0 0h7l3 2v2l-15 8-5-1v-3z" fill="#228685"/>
<path transform="translate(849,80)" d="m0 0h19l19 3 2 3h-11l-22-3-7-2z" fill="#2467AF"/>
<path transform="translate(448,428)" d="m0 0 1 4-14 14-7 9-1-2-2-1 9-11 11-11z" fill="#2AA6DD"/>
<path transform="translate(496,393)" d="m0 0 2 1-3 5-5 3 5 6 2 2-4-1-5-4-6 2h-3l1-4h2l-2-6h3l3 2z" fill="#3178CD"/>
<path transform="translate(954,124)" d="m0 0 5 1v2l-14 7-12 7-4-2 5-4z" fill="#2FBED4"/>
<path transform="translate(1008,401)" d="m0 0h4v3l-23 12-3 1v-6l5-1z" fill="#2A8FB9"/>
<path transform="translate(1096,495)" d="m0 0h2l1 7-4 16-3 4-1-1 1-10 3-15z" fill="#2F8CC3"/>
<path transform="translate(1e3 355)" d="m0 0 11 6 12 8-3 3-9-5-11-7z" fill="#2B87B9"/>
<path transform="translate(888,84)" d="m0 0 10 1 19 4-3 3-9-1-20-4z" fill="#2A76B9"/>
<path transform="translate(943,459)" d="m0 0 9 1 7 5v3l-6 1-12-7z" fill="#218284"/>
<path transform="translate(977,349)" d="m0 0 4 1 4 8v6l-3 1-4-4-1-3z" fill="#30E7BD"/>
<path transform="translate(848,497)" d="m0 0 3 2v2l2 1-13 7-4-2 2-4 6-4z" fill="#228490"/>
<path transform="translate(1058,396)" d="m0 0 7 6 11 14v2l-4-1-10-11-3-5z" fill="#3693D3"/>
<path transform="translate(487,404)" d="m0 0 7 5 5 2 13 10-4 2-6-4-13-11z" fill="#3277CB"/>
<path transform="translate(823,78)" d="m0 0h27l9 1-4 3-22-1-10-2z" fill="#2F83C7"/>
<path transform="translate(782,693)" d="m0 0h15l-1 2-15 2-26-1v-1z" fill="#38ADE0"/>
<path transform="translate(950,401)" d="m0 0 2 1-1 5-3 3-4 1-1-1h-8l-1-2z" fill="#258E9D"/>
<path transform="translate(687,695)" d="m0 0 31 1v1h-12v2h-14l-13-1v-1l8-1z" fill="#3186D1"/>
<path transform="translate(598,681)" d="m0 0 15 2 12 4v2l-10-1-13-3z" fill="#265DB1"/>
<path transform="translate(563,318)" d="m0 0h5l15 9 1 2h-6l-14-8z" fill="#3073C7"/>
<path transform="translate(509,187)" d="m0 0 2 1-6 8-9 9-4-2 15-15z" fill="#2F77CC"/>
<path transform="translate(499,526)" d="m0 0h2v2l2 1-17 9-4-1 4-4z" fill="#368DD2"/>
<path transform="translate(665,693)" d="m0 0 19 1 6 2v1h-21l-8-1 4-1z" fill="#2C6BC5"/>
<path transform="translate(578,641)" d="m0 0 5 2-4 3-11 6-4-2 3-3z" fill="#368AD1"/>
<path transform="translate(913,90)" d="m0 0h8l15 4-3 1v2l-7-1-12-3z" fill="#2874B3"/>
<path transform="translate(643,690)" d="m0 0 13 1 8 1 1 3h-12l-13-2z" fill="#2764B8"/>
<path transform="translate(649,602)" d="m0 0 7 1-4 3-11 6-4-2 5-4z" fill="#3589D1"/>
<path transform="translate(443,276)" d="m0 0 3 2-1 8-2 10h-2l-1-3v-8z" fill="#2F71C4"/>
<path transform="translate(444,340)" d="m0 0h2l6 18h-4l-5-12z" fill="#337BCC"/>
<path transform="translate(517,516)" d="m0 0 2 1-2 4-13 7h-3v-3z" fill="#327BCE"/>
<path transform="translate(549,308)" d="m0 0 15 8 2 2h-3l-1 2-13-7-1-4z" fill="#358AD1"/>
<path transform="translate(986,491)" d="m0 0h2l-1 11-2 2-6-1z" fill="#248A96"/>
<path transform="translate(765,77)" d="m0 0h13v1l11 1v1h-31v-1z" fill="#30A9DF"/>
<path transform="translate(540,331)" d="m0 0 5 1 1 4-2 3h-5l-2-5z" fill="#29A5DD"/>
<path transform="translate(1057,255)" d="m0 0h3v2l-14 8h-2l1-5 8-4z" fill="#40ADA1"/>
<path transform="translate(958,98)" d="m0 0 4 1 1 5h-4v2l-4-1v5h-1l-1-10z" fill="#2CBCD4"/>
<path transform="translate(522,351)" d="m0 0 5 1 1 1v5l-6 1-2-2 1-5z" fill="#27A4DD"/>
<path transform="translate(1e3 211)" d="m0 0 5 1 2 4-3 3-5-1-1-5z" fill="#31E5BC"/>
<path transform="translate(1011,460)" d="m0 0 4 1 2 4-3 3-5-1-1-4z" fill="#2BA6DE"/>
<path transform="translate(555,448)" d="m0 0 6 2 8 4-4 3-12-6 2-1z" fill="#3476CB"/>
<path transform="translate(1023,393)" d="m0 0 2 1-2 4-9 5h-2v-2l-2-1z" fill="#2D9AB8"/>
<path transform="translate(1047,389)" d="m0 0 6 1 5 5 2 6-4-2-9-8z" fill="#2F88BD"/>
<path transform="translate(986,191)" d="m0 0 5 1 1 5-2 2-5-1-1-5z" fill="#30E5BD"/>
<path transform="translate(891,159)" d="m0 0 2 1-3 5-7 4h-5l1-3z" fill="#2E9BB4"/>
<path transform="translate(849,562)" d="m0 0h2v2l5 2-4 3-5 2-1-7z" fill="#248A93"/>
<path transform="translate(548,364)" d="m0 0h2v4l-10 5h-3l1-4z" fill="#2665C2"/>
<path transform="translate(996,442)" d="m0 0 5 1 1 4-3 3-4-1-1-5z" fill="#2BA0DA"/>
<path transform="translate(971,338)" d="m0 0 5 1 10 5v4l-4-1-11-8z" fill="#2578A7"/>
<path transform="translate(671,95)" d="m0 0 4 1-3 2-20 6-2-1 9-4z" fill="#4FB8E5"/>
<path transform="translate(526,470)" d="m0 0 3 1 1 6-1 1h-5l-2-2 1-4z" fill="#3482CE"/>
<path transform="translate(413,472)" d="m0 0h2l-2 5-5 11h-3l-1-2 3-7h3l2-6z" fill="#31B9D7"/>
<path transform="translate(985,356)" d="m0 0 2 3v12l-3 4-1-2v-8l1-1z" fill="#28C9CA"/>
<path transform="translate(491,204)" d="m0 0h4l-2 4-6 6-4-1 6-7z" fill="#2766C2"/>
<path transform="translate(536,370)" d="m0 0 2 1-1 2 2 1-10 5-3-1 1-3z" fill="#3276CB"/>
<path transform="translate(441,328)" d="m0 0 3 4 1 8-3 3-2-6v-8z" fill="#316FC5"/>
<path transform="translate(1095,507)" d="m0 0h1v8l-3 7-2-1 1-10h2z" fill="#2E80BF"/>
<path transform="translate(812,524)" d="m0 0 2 1-7 5h-2v2l-12 3 3-3z" fill="#061A36"/>
<path transform="translate(509,421)" d="m0 0 7 3 3 2 1 4-4-1-8-5z" fill="#2B65C0"/>
<path transform="translate(554,154)" d="m0 0h2l-1 3-10 7-5 1 1-3z" fill="#4FB8E5"/>
<path transform="translate(613,622)" d="m0 0 2 1-1 4-9 5-2-1 3-5z" fill="#347ECF"/>
<path transform="translate(995,408)" d="m0 0 2 1-2 4-7 4h-2v-6l5-1z" fill="#3093BA"/>
<path transform="translate(984,624)" d="m0 0 3 1-4 3-11 6-3-1 8-5z" fill="#4FB8E5"/>
<path transform="translate(1055,570)" d="m0 0m-1 1h1v5l-4 4-4 1-3 2 2-4z" fill="#2E75CA"/>
<path transform="translate(450,553)" d="m0 0h2v2l2 1-10 5-3-3z" fill="#3BB6DD"/>
<path transform="translate(546,500)" d="m0 0 2 1-1 4-7 4-3-1v-3z" fill="#3479CD"/>
<path transform="translate(927,139)" d="m0 0h5l-1 3-7 4-4-1 5-5z" fill="#2EA1B7"/>
<path transform="translate(1017,363)" d="m0 0 10 6-3 3-7-4z" fill="#2C8CBC"/>
<path transform="translate(1009,291)" d="m0 0 5 1v5l-5 1-2-4z" fill="#31E4BC"/>
<path transform="translate(439,290)" d="m0 0 2 3 1 3v10l-2-3-2 1v-8z" fill="#3581D0"/>
<path transform="translate(393,585)" d="m0 0 6 1 13 7-2 2-17-9z" fill="#2FB6D8"/>
<path transform="translate(458,419)" d="m0 0 2 1-4 4-3 5-4 2 1-5z" fill="#3694D5"/>
<path transform="translate(531,274)" d="m0 0 4 2-1 4-5 1-1-5z" fill="#2BA6DE"/>
<path transform="translate(616,253)" d="m0 0h5l1 4-1 2h-5l-1-5z" fill="#FDFEFD"/>
<path transform="translate(952,472)" d="m0 0 2 1-2 2 1 5-4 2-2-5v-2z" fill="#218185"/>
<path transform="translate(424,453)" d="m0 0h3l-1 4-3 4-5 2 2-5z" fill="#30B0DC"/>
<path transform="translate(441,319)" d="m0 0h1l1 12-2-2-2 3-1-11 3 1z" fill="#3384D1"/>
<path transform="translate(591,679)" d="m0 0 10 1 4 2h-6l2 2-10-2z" fill="#3073C8"/>
<path transform="translate(1083,430)" d="m0 0 4 1 3 6-1 3-3-1-3-6z" fill="#2FA5DD"/>
<path transform="translate(575,228)" d="m0 0 5 1 1 3-1 2h-5l-1-5z" fill="#FDFEFD"/>
<path transform="translate(468,231)" d="m0 0 3 1-2 5-3 3-2-1 1-4z" fill="#2B6BC0"/>
<path transform="translate(920,143)" d="m0 0 2 1v3l-7 4h-2l1-5z" fill="#32A4BE"/>
<path transform="translate(582,676)" d="m0 0 12 2-3 1v2l-10-2z" fill="#2C69C4"/>
<path transform="translate(951,511)" d="m0 0h2v2l3 1-3 3-4 1-1-5z" fill="#268D99"/>
<path transform="translate(1087,438)" d="m0 0 4 1 2 7-3 3-3-7z" fill="#318FCD"/>
<path transform="translate(1019,601)" d="m0 0 2 1-2 4-6 4h-3l1-3z" fill="#35AADF"/>
<path transform="translate(1066,556)" d="m0 0 3 1-1 4-3 4-3-1 3-7z" fill="#337ACB"/>
<path transform="translate(986,478)" d="m0 0h1l1 12h-2l-1 2h-2z" fill="#3BBBDA"/>
<path transform="translate(1068,409)" d="m0 0 5 3 3 4v2l-4-1-5-7z" fill="#2EA5DD"/>
<path transform="translate(845,303)" d="m0 0h5l1 4-5 2-2-4z" fill="#FDFEFD"/>
<path transform="translate(877,83)" d="m0 0h10l2 3h-11z" fill="#2466AD"/>
<path transform="translate(871,81)" d="m0 0 10 1-4 1v2l-13-1v-1h7z" fill="#2C81C2"/>
<path transform="translate(789,557)" d="m0 0h6v2l-8 2h-5v-2z" fill="#061A36"/>
<path transform="translate(576,673)" d="m0 0 11 3-4 1-5 1-3-2z" fill="#347FCF"/>
<path transform="translate(911,148)" d="m0 0 3 1-1 3-5 3-4-1z" fill="#2B9BB2"/>
<path transform="translate(649,602)" d="m0 0 7 1-4 3-4 2h-3l1-2z" fill="#3073CB"/>
<path transform="translate(1027,595)" d="m0 0 2 1-4 6-3 2-3-1 4-5z" fill="#3895D5"/>
<path transform="translate(550,248)" d="m0 0 2 2 2 5v3h-2l-2 3z" fill="#20B4D4"/>
<path transform="translate(756,78)" d="m0 0h8l2 3h-15l2-2z" fill="#49B5E4"/>
<path transform="translate(616,569)" d="m0 0 4 1 3 3v2l2 1-9-2z" fill="#143F87"/>
<path transform="translate(506,522)" d="m0 0 3 1-1 3-4 2h-3v-3z" fill="#3079CD"/>
<path transform="translate(548,445)" d="m0 0 5 1 2 1v3l-6-1-2-1z" fill="#2964C1"/>
<path transform="translate(487,404)" d="m0 0 8 6 5 6-4-2-9-8z" fill="#2A66C1"/>
<path transform="translate(929,400)" d="m0 0 3 1 1 3-2 2h-4l-1-3z" fill="#FDFEFD"/>
<path transform="translate(459,371)" d="m0 0 5 4 4 5-1 2-5-4-3-4z" fill="#3795D5"/>
<path transform="translate(615,685)" d="m0 0 6 1 4 1v2l-10-1z" fill="#2152AC"/>
<path transform="translate(457,549)" d="m0 0 4 2-4 3-5 1v-3z" fill="#2FB3DB"/>
<path transform="translate(953,508)" d="m0 0 5 1v4l-3 1-3-3z" fill="#FDFEFD"/>
<path transform="translate(789,469)" d="m0 0 5 1-1 4-2 1-3-2z" fill="#FDFEFD"/>
<path transform="translate(681,92)" d="m0 0 5 1-4 2-8 1v-2z" fill="#42B6E0"/>
</svg>
